<svg id="Capa_1" data-name="Capa 1" xmlns="http://www.w3.org/2000/svg" viewBox="0 0 623.62 125.37"><defs><style>.cls-1{fill:#179ffc;}.cls-2{fill:#404040;}.cls-3{fill:#e1ff33;}</style></defs><title>logo</title><path class="cls-1" d="M221.34,87.91h0a2.71,2.71,0,0,1,2.13,4.39,39,39,0,1,1,.06-47.67A2.71,2.71,0,0,1,221.41,49h0a2.73,2.73,0,0,1-2.17-1.09A33.55,33.55,0,1,0,219.18,89,2.74,2.74,0,0,1,221.34,87.91Z" transform="translate(-29.09 -29.46)"/><path class="cls-1" d="M301.48,87.91h0a2.71,2.71,0,0,1,2.12,4.39,39,39,0,1,1,.06-47.67A2.71,2.71,0,0,1,301.54,49h0a2.76,2.76,0,0,1-2.17-1.09A33.55,33.55,0,1,0,299.32,89,2.72,2.72,0,0,1,301.48,87.91Z" transform="translate(-29.09 -29.46)"/><path class="cls-1" d="M652.71,68.43c0,.91,0,1.81-.1,2.71A39,39,0,0,1,585.26,95a2.71,2.71,0,0,1,2-4.53h0a2.74,2.74,0,0,1,2,.88,33.56,33.56,0,0,0,57.94-20.22H574.88c-.06-.9-.1-1.8-.1-2.71s0-1.81.1-2.71a39,39,0,0,1,67.35-23.87,2.7,2.7,0,0,1-2,4.53h0a2.74,2.74,0,0,1-2-.88A33.56,33.56,0,0,0,580.3,65.72h72.31C652.68,66.62,652.71,67.52,652.71,68.43Z" transform="translate(-29.09 -29.46)"/><path class="cls-1" d="M65.54,32.58h0a2.69,2.69,0,0,1-2.3,2.67A33.55,33.55,0,0,0,34.7,68.43v36.26a2.7,2.7,0,0,1-2.71,2.7h0a2.7,2.7,0,0,1-2.7-2.7V68.43A39,39,0,0,1,62.48,29.89,2.7,2.7,0,0,1,65.54,32.58Z" transform="translate(-29.09 -29.46)"/><path class="cls-1" d="M565,68.43v36.26a2.7,2.7,0,0,1-2.7,2.7h0a2.7,2.7,0,0,1-2.71-2.7V69.13c0-18.28-14.33-33.74-32.61-34.24a33.55,33.55,0,0,0-34.49,33.54v36.26a2.71,2.71,0,0,1-2.71,2.7h0a2.71,2.71,0,0,1-2.71-2.7V68.43a39,39,0,1,1,77.93,0Z" transform="translate(-29.09 -29.46)"/><path class="cls-1" d="M140.77,48.81a39,39,0,1,0,0,39.64v16.44a2.7,2.7,0,0,0,2.7,2.7h0a2.7,2.7,0,0,0,2.71-2.7V68.63A38.79,38.79,0,0,0,140.77,48.81Zm-33.56,53.37a33.55,33.55,0,1,1,33.56-33.55A33.56,33.56,0,0,1,107.21,102.18Z" transform="translate(-29.09 -29.46)"/><path class="cls-2" d="M438.4,29.46a39,39,0,0,0-22.72,7.31c-.55.45-1.1.88-1.67,1.29a33.54,33.54,0,0,1-39.08-.18,1.27,1.27,0,0,1-.13-.11c-.37-.27-.75-.55-1.12-.84a38.39,38.39,0,0,0-12.4-6,39,39,0,1,0-10.53,76.47,38.92,38.92,0,0,0,23.07-7.57l.06,0c.21-.16.4-.34.64-.5a2.27,2.27,0,0,1,.28-.21,33.6,33.6,0,0,1,39.37-.14c.46.33.93.69,1.37,1A39,39,0,1,0,438.4,29.46Zm0,72.52a33.31,33.31,0,0,1-19.67-6.37s-.06,0-.09-.07c-.41-.3-.8-.61-1.2-.91a38.94,38.94,0,0,0-45.93.16.07.07,0,0,0-.05,0l-.64.48-.08,0a33.55,33.55,0,1,1-.21-54v0c.32.21.62.44.93.67l.08.09a38.81,38.81,0,0,0,12.51,6.09,38.2,38.2,0,0,0,10.53,1.46,38.46,38.46,0,0,0,10.52-1.45,39.09,39.09,0,0,0,12.26-5.9c.51-.41,1-.8,1.54-1.19,0,0,.06,0,.07-.06A33.56,33.56,0,1,1,438.4,102Z" transform="translate(-29.09 -29.46)"/><path class="cls-3" d="M438.4,34.87A33.52,33.52,0,0,0,419,41.06s-.05,0-.07.06c-.51.39-1,.78-1.54,1.19a39.09,39.09,0,0,1-12.26,5.9,38.46,38.46,0,0,1-10.52,1.45,38.2,38.2,0,0,1-10.53-1.46,38.81,38.81,0,0,1-12.51-6.09l-.08-.09c-.31-.23-.61-.46-.93-.67v0a33.56,33.56,0,1,0,.21,54l.08,0,.64-.48a.07.07,0,0,1,.05,0,38.87,38.87,0,0,1,45.93-.16c.4.3.79.61,1.2.91,0,0,.07,0,.09.07A33.56,33.56,0,1,0,438.4,34.87Zm-87.65,48.2a14.64,14.64,0,1,1,14.62-14.65A14.63,14.63,0,0,1,350.75,83.07Zm87.65,0A14.64,14.64,0,1,1,453,68.44,14.63,14.63,0,0,1,438.4,83.07Z" transform="translate(-29.09 -29.46)"/><path class="cls-2" d="M350.75,53.8a14.64,14.64,0,1,0,14.62,14.62A14.62,14.62,0,0,0,350.75,53.8Zm0,23.82a9.19,9.19,0,1,1,9.18-9.2A9.19,9.19,0,0,1,350.75,77.62Z" transform="translate(-29.09 -29.46)"/><path class="cls-2" d="M438.4,53.8A14.64,14.64,0,1,0,453,68.44,14.63,14.63,0,0,0,438.4,53.8Zm0,23.82a9.19,9.19,0,1,1,9.2-9.18A9.18,9.18,0,0,1,438.4,77.62Z" transform="translate(-29.09 -29.46)"/><text x="-29.09" y="-29.46"></text><path class="cls-2" d="M36.33,126.48a.15.15,0,0,1,.14.08l6.17,14.87a.12.12,0,0,1,0,.14.14.14,0,0,1-.12.07h-.76a.15.15,0,0,1-.14-.1L39,135.35H32.72l-2.58,6.19a.15.15,0,0,1-.14.1h-.76a.19.19,0,0,1-.13-.07.17.17,0,0,1,0-.14l6.18-14.87a.14.14,0,0,1,.13-.08Zm2.3,7.87-2.75-6.61-2.75,6.61Z" transform="translate(-29.09 -29.46)"/><path class="cls-2" d="M54.89,141.64a.13.13,0,0,1-.15-.15V126.63a.13.13,0,0,1,.15-.15h4.6a7.51,7.51,0,0,1,2.93.58,7.34,7.34,0,0,1,2.38,1.6A7.42,7.42,0,0,1,66.44,131a7.63,7.63,0,0,1,.63,2.9,7.35,7.35,0,0,1-.57,3,7.7,7.7,0,0,1-1.66,2.45A7.48,7.48,0,0,1,62.36,141a7.57,7.57,0,0,1-3,.62Zm.86-1h3.74a6.49,6.49,0,0,0,2.57-.52,6.63,6.63,0,0,0,2.08-1.4,6.54,6.54,0,0,0,1.41-2.09,6.44,6.44,0,0,0,.52-2.56,6.57,6.57,0,0,0-1.93-4.65,6.48,6.48,0,0,0-4.65-1.94H55.75Z" transform="translate(-29.09 -29.46)"/><path class="cls-2" d="M85.84,126.48a.15.15,0,0,1,.14.08l6.17,14.87a.12.12,0,0,1,0,.14.14.14,0,0,1-.12.07h-.76a.15.15,0,0,1-.14-.1l-2.57-6.19H82.23l-2.58,6.19a.15.15,0,0,1-.14.1h-.76a.15.15,0,0,1-.12-.07.14.14,0,0,1,0-.14l6.18-14.87a.15.15,0,0,1,.14-.08Zm2.3,7.87-2.75-6.61-2.75,6.61Z" transform="translate(-29.09 -29.46)"/><path class="cls-2" d="M109.84,126.47a4,4,0,0,1,2.87,6.93,4.09,4.09,0,0,1-3,1.22h-4.49v6.87a.13.13,0,0,1-.15.15h-.71a.13.13,0,0,1-.15-.15V126.62a.13.13,0,0,1,.15-.15Zm0,7.15a3.08,3.08,0,0,0,0-6.16h-4.58v6.16Z" transform="translate(-29.09 -29.46)"/><path class="cls-2" d="M134.64,126.49c.09,0,.14.05.14.15v.71a.13.13,0,0,1-.14.14h-4.26v14a.13.13,0,0,1-.15.15h-.71c-.09,0-.14,0-.14-.15v-14h-4.26a.12.12,0,0,1-.14-.14v-.71c0-.1,0-.15.14-.15Z" transform="translate(-29.09 -29.46)"/><path class="cls-2" d="M150.59,126.48a.15.15,0,0,1,.14.08l6.17,14.87a.14.14,0,0,1,0,.14.16.16,0,0,1-.13.07H156a.14.14,0,0,1-.13-.1l-2.57-6.19H147l-2.58,6.19a.16.16,0,0,1-.14.1h-.76a.19.19,0,0,1-.13-.07.14.14,0,0,1,0-.14l6.18-14.87a.13.13,0,0,1,.13-.08Zm2.3,7.87-2.75-6.61-2.75,6.61Z" transform="translate(-29.09 -29.46)"/><path class="cls-2" d="M175.13,126.49a.13.13,0,0,1,.15.15v.71c0,.09-.05.14-.15.14h-4.26v14a.13.13,0,0,1-.15.15H170c-.09,0-.13,0-.13-.15v-14h-4.26c-.1,0-.15,0-.15-.14v-.71a.13.13,0,0,1,.15-.15Z" transform="translate(-29.09 -29.46)"/><path class="cls-2" d="M187.26,141.64a.13.13,0,0,1-.15-.15V126.64a.13.13,0,0,1,.15-.15H188a.13.13,0,0,1,.15.15v14.85a.13.13,0,0,1-.15.15Z" transform="translate(-29.09 -29.46)"/><path class="cls-2" d="M206.81,141.54a.14.14,0,0,1-.14.1h-.84a.14.14,0,0,1-.14-.1l-5.11-14.87a.15.15,0,0,1,0-.13.11.11,0,0,1,.11-.06h.75a.13.13,0,0,1,.14.09l4.64,13.53,4.65-13.53a.13.13,0,0,1,.14-.09h.74a.14.14,0,0,1,.12.06.12.12,0,0,1,0,.13Z" transform="translate(-29.09 -29.46)"/><path class="cls-2" d="M225.14,127.5v6.07h5.73a.13.13,0,0,1,.15.15v.7c0,.1-.05.14-.15.14h-5.73v6.08h8.61a.13.13,0,0,1,.15.15v.7a.13.13,0,0,1-.15.15H224.3a.13.13,0,0,1-.15-.15V126.65a.13.13,0,0,1,.15-.15h9.45a.13.13,0,0,1,.15.15v.71c0,.1-.05.14-.15.14Z" transform="translate(-29.09 -29.46)"/><path class="cls-2" d="M269.3,128.67a.13.13,0,0,1-.19,0l-.16-.13-.22-.16-.55-.36a5.51,5.51,0,0,0-1.39-.5,6.18,6.18,0,0,0-.91-.12h-.49l-.28,0h-.25a4.26,4.26,0,0,0-1,.26,2.37,2.37,0,0,0-.9.58,2.17,2.17,0,0,0-.54,1l0,.15a.78.78,0,0,0,0,.14,2.13,2.13,0,0,0,0,.3V130h0v.31l0,.12v.07l0,.07.05.14a.31.31,0,0,0,0,.13l0,.07,0,.07.07.13.08.13.05.06,0,.06.1.12a4.28,4.28,0,0,0,1.06.82,13.29,13.29,0,0,0,1.31.65l.18.07.18.09.35.16.68.31a12.13,12.13,0,0,1,1.42.74,6,6,0,0,1,1.27,1.06,3.54,3.54,0,0,1,.75,1.53l0,.21c0,.09,0,.16,0,.21v.35h0v.45l0,.21,0,.21a3.54,3.54,0,0,1-.67,1.47,3.44,3.44,0,0,1-1.19,1,5.26,5.26,0,0,1-1.34.47l-.15,0-.17,0a1.45,1.45,0,0,1-.32,0l-.32,0-.3,0H265l-.27,0h-.15l-.15,0a6.3,6.3,0,0,1-1-.2,7.2,7.2,0,0,1-1.6-.66l-.54-.35-.38-.29-.21-.18a.13.13,0,0,1,0-.21l.52-.49a.13.13,0,0,1,.2,0l.13.11a3.65,3.65,0,0,0,.31.24,4.66,4.66,0,0,0,.47.3,6,6,0,0,0,1.36.57,7.7,7.7,0,0,0,.9.19h.23a1.23,1.23,0,0,0,.27,0h.79l.27,0,.28,0,.14,0,.14,0a4.75,4.75,0,0,0,1.07-.37,2.51,2.51,0,0,0,1.37-1.79l0-.14,0-.15a.17.17,0,0,0,0-.08v-.34h0v0h0v-.23a1,1,0,0,0,0-.16l0-.07v-.08a2.52,2.52,0,0,0-.55-1.11,7,7,0,0,0-2.34-1.55l-.71-.32-.34-.17-.15-.07-.18-.07a15.41,15.41,0,0,1-1.41-.7,5.74,5.74,0,0,1-1.28-1A1.22,1.22,0,0,1,262,132l-.06-.08-.06-.08a3.82,3.82,0,0,1-.22-.37l-.05-.11,0-.1a1,1,0,0,1-.07-.2l-.07-.2,0-.11,0-.11,0-.22V130h0v-.2a3.58,3.58,0,0,1,0-.4l0-.19.06-.2a2.87,2.87,0,0,1,.77-1.37,3.73,3.73,0,0,1,1.22-.79,5.25,5.25,0,0,1,1.27-.31h.32l.28,0h.57a6.48,6.48,0,0,1,1.06.13,6.1,6.1,0,0,1,1.62.6,5.74,5.74,0,0,1,.55.34,4.56,4.56,0,0,1,.39.27l.2.18a.13.13,0,0,1,0,.21Z" transform="translate(-29.09 -29.46)"/><path class="cls-2" d="M287.43,141a7.69,7.69,0,0,1-2.41-1.62,7.84,7.84,0,0,1-1.63-2.41,7.67,7.67,0,0,1,0-5.9A7.72,7.72,0,0,1,285,128.7a7.52,7.52,0,0,1,2.41-1.62,7.55,7.55,0,0,1,5.9,0,7.49,7.49,0,0,1,4,4,7.44,7.44,0,0,1,0,5.9,7.49,7.49,0,0,1-4,4,7.55,7.55,0,0,1-5.9,0Zm.39-13a6.61,6.61,0,0,0-3.5,3.5,6.56,6.56,0,0,0,0,5.12,6.54,6.54,0,0,0,1.41,2.09,6.58,6.58,0,0,0,7.21,1.4,6.56,6.56,0,0,0,2.09-1.4,6.67,6.67,0,0,0,1.4-2.09,6.58,6.58,0,0,0-3.49-8.62,6.56,6.56,0,0,0-5.12,0Z" transform="translate(-29.09 -29.46)"/><path class="cls-2" d="M319.77,126.5a.13.13,0,0,1,.15.15v.7c0,.09-.05.14-.15.14h-7.9v6h5.63c.1,0,.14.05.14.15v.71a.12.12,0,0,1-.14.14h-5.63v7c0,.1-.05.15-.14.15H311a.13.13,0,0,1-.15-.15V126.65a.13.13,0,0,1,.15-.15Z" transform="translate(-29.09 -29.46)"/><path class="cls-2" d="M341.62,126.49a.13.13,0,0,1,.15.15v.71c0,.09,0,.14-.15.14h-4.26v14a.13.13,0,0,1-.15.15h-.7c-.1,0-.14,0-.14-.15v-14h-4.26c-.1,0-.15,0-.15-.14v-.71a.13.13,0,0,1,.15-.15Z" transform="translate(-29.09 -29.46)"/><path class="cls-2" d="M365.63,141.5a.13.13,0,0,1-.14.14h-.78a.12.12,0,0,1-.11-.07l-4.46-6.91-4.45,6.91a.16.16,0,0,1-.13.07h-.78a.14.14,0,0,1-.15-.14l-1-14.85a.13.13,0,0,1,.15-.15h.71a.13.13,0,0,1,.14.14l.92,13.34,4.42-6.85a.12.12,0,0,1,.11-.07h.15a.14.14,0,0,1,.13.08l4.39,6.83.91-13.32a.14.14,0,0,1,.15-.14h.71c.11,0,.15,0,.15.15Z" transform="translate(-29.09 -29.46)"/><path class="cls-2" d="M385.58,126.48a.15.15,0,0,1,.14.08l6.17,14.87a.14.14,0,0,1,0,.14.15.15,0,0,1-.12.07H391a.15.15,0,0,1-.13-.1l-2.57-6.19H382l-2.58,6.19a.15.15,0,0,1-.14.1h-.76a.19.19,0,0,1-.13-.07.17.17,0,0,1,0-.14l6.18-14.87a.13.13,0,0,1,.13-.08Zm2.3,7.87-2.75-6.61-2.75,6.61Z" transform="translate(-29.09 -29.46)"/><path class="cls-2" d="M404,134.64v-8a.13.13,0,0,1,.15-.15h5.43a4,4,0,0,1,4.07,4,3.87,3.87,0,0,1-1.21,2.92,4.08,4.08,0,0,1-2.95,1.22Zm.15,7a.13.13,0,0,1-.15-.15v-9h1v9c0,.1-.05.15-.14.15Zm.85-8h4.58a3.06,3.06,0,0,0,3.07-3.06,3,3,0,0,0-.9-2.18,3,3,0,0,0-2.17-.9H405Zm7.37,8a.13.13,0,0,1-.12-.08l-3.86-7.05.87-.47,4,7.38a.12.12,0,0,1,0,.14.14.14,0,0,1-.12.08Z" transform="translate(-29.09 -29.46)"/><path class="cls-2" d="M428.1,127.5v6.07h5.73c.09,0,.14.05.14.15v.7a.12.12,0,0,1-.14.14H428.1v6.08h8.6a.13.13,0,0,1,.15.15v.7a.13.13,0,0,1-.15.15h-9.45a.13.13,0,0,1-.15-.15V126.65a.13.13,0,0,1,.15-.15h9.45a.13.13,0,0,1,.15.15v.71c0,.1-.05.14-.15.14Z" transform="translate(-29.09 -29.46)"/><path class="cls-2" d="M472.25,128.67a.13.13,0,0,1-.19,0l-.16-.13-.22-.16-.55-.36a5.38,5.38,0,0,0-1.39-.5,6.18,6.18,0,0,0-.91-.12h-.49l-.28,0h-.25a4.38,4.38,0,0,0-1,.26,2.33,2.33,0,0,0-.89.58,2,2,0,0,0-.54,1l0,.15a.78.78,0,0,0,0,.14,2.13,2.13,0,0,0,0,.3V130h0v.31l0,.12v.07l0,.07,0,.14a.31.31,0,0,0,.05.13l0,.07,0,.07.08.13.07.13.05.06.05.06a.62.62,0,0,0,.09.12,4.48,4.48,0,0,0,1.06.82,14.52,14.52,0,0,0,1.31.65l.18.07.18.09.35.16.68.31a12.13,12.13,0,0,1,1.42.74,5.75,5.75,0,0,1,1.27,1.06,3.33,3.33,0,0,1,.75,1.53l0,.21a.9.9,0,0,1,0,.21v.35h0v.45l0,.21,0,.21a3.3,3.3,0,0,1-.67,1.47,3.35,3.35,0,0,1-1.19,1,5.19,5.19,0,0,1-1.33.47l-.16,0-.17,0a1.39,1.39,0,0,1-.32,0l-.31,0-.31,0H468l-.28,0h-.15l-.14,0a6.22,6.22,0,0,1-1.05-.2,7.2,7.2,0,0,1-1.6-.66c-.19-.12-.37-.23-.53-.35s-.26-.19-.39-.29l-.21-.18a.13.13,0,0,1,0-.21l.52-.49a.13.13,0,0,1,.2,0l.13.11a2.67,2.67,0,0,0,.32.24,3.64,3.64,0,0,0,.46.3,5.84,5.84,0,0,0,1.37.57,7.17,7.17,0,0,0,.89.19h.24a1.18,1.18,0,0,0,.26,0h.79l.28,0,.27,0,.14,0,.15,0a5.13,5.13,0,0,0,1.07-.37,2.64,2.64,0,0,0,.87-.71,2.67,2.67,0,0,0,.49-1.08l0-.14,0-.15a.17.17,0,0,0,0-.08v-.34h0v0h0v-.23a1,1,0,0,0,0-.16l0-.07v-.08a2.42,2.42,0,0,0-.55-1.11,6.76,6.76,0,0,0-2.34-1.55l-.7-.32-.34-.17-.16-.07-.18-.07a15.41,15.41,0,0,1-1.41-.7,5.74,5.74,0,0,1-1.28-1L465,132l-.07-.08-.06-.08-.22-.37,0-.11,0-.1a1,1,0,0,1-.07-.2l-.06-.2,0-.11,0-.11,0-.22V130h0v-.2c0-.11,0-.24,0-.4a1.62,1.62,0,0,1,0-.19l.05-.2a3,3,0,0,1,.77-1.37,3.67,3.67,0,0,1,1.23-.79,5.28,5.28,0,0,1,1.26-.31H468l.29,0h.57a6.5,6.5,0,0,1,1.05.13,5.85,5.85,0,0,1,1.62.6,5.74,5.74,0,0,1,.55.34,3.39,3.39,0,0,1,.39.27l.2.18a.13.13,0,0,1,0,.21Z" transform="translate(-29.09 -29.46)"/><path class="cls-2" d="M490.38,141a7.81,7.81,0,0,1-2.41-1.62,8,8,0,0,1-1.63-2.41,7.67,7.67,0,0,1,0-5.9A7.89,7.89,0,0,1,488,128.7a7.63,7.63,0,0,1,2.41-1.62,7.55,7.55,0,0,1,5.9,0,7.55,7.55,0,0,1,4,4,7.55,7.55,0,0,1,0,5.9,7.55,7.55,0,0,1-4,4,7.55,7.55,0,0,1-5.9,0Zm.39-13a6.43,6.43,0,0,0-2.09,1.41,6.3,6.3,0,0,0-1.4,2.09,6.56,6.56,0,0,0,0,5.12,6.48,6.48,0,0,0,3.49,3.49,6.6,6.6,0,0,0,7.21-1.4,6.54,6.54,0,0,0,1.41-2.09,6.56,6.56,0,0,0,0-5.12,6.61,6.61,0,0,0-3.5-3.5,6.56,6.56,0,0,0-5.12,0Z" transform="translate(-29.09 -29.46)"/><path class="cls-2" d="M514,141.64a.13.13,0,0,1-.15-.15V126.61c0-.1,0-.14.15-.14h.71c.1,0,.15,0,.15.14v14h7.09a.13.13,0,0,1,.15.15v.71a.13.13,0,0,1-.15.15Z" transform="translate(-29.09 -29.46)"/><path class="cls-2" d="M535.34,140.08a5,5,0,0,1-1.4-3.52v-9.91a.13.13,0,0,1,.15-.15h.7a.13.13,0,0,1,.15.15v9.92a4,4,0,0,0,1.09,2.81,4,4,0,0,0,6.84-2.71v-10a.13.13,0,0,1,.15-.15h.71c.09,0,.14,0,.14.15v10a5,5,0,0,1-5.12,5A4.72,4.72,0,0,1,535.34,140.08Z" transform="translate(-29.09 -29.46)"/><path class="cls-2" d="M565.33,126.49a.13.13,0,0,1,.15.15v.71c0,.09-.05.14-.15.14h-4.26v14a.13.13,0,0,1-.15.15h-.71c-.09,0-.13,0-.13-.15v-14h-4.26c-.1,0-.15,0-.15-.14v-.71a.13.13,0,0,1,.15-.15Z" transform="translate(-29.09 -29.46)"/><path class="cls-2" d="M577.46,141.64a.13.13,0,0,1-.15-.15V126.64a.13.13,0,0,1,.15-.15h.71a.13.13,0,0,1,.15.15v14.85a.13.13,0,0,1-.15.15Z" transform="translate(-29.09 -29.46)"/><path class="cls-2" d="M596.2,141a7.55,7.55,0,0,1-4-4,7.55,7.55,0,0,1,0-5.9,7.55,7.55,0,0,1,4-4,7.55,7.55,0,0,1,5.9,0,7.55,7.55,0,0,1,4,4,7.55,7.55,0,0,1,0,5.9,7.55,7.55,0,0,1-4,4,7.55,7.55,0,0,1-5.9,0Zm.4-13a6.57,6.57,0,0,0-3.5,8.62,6.67,6.67,0,0,0,1.4,2.09,6.6,6.6,0,0,0,2.1,1.4,6.59,6.59,0,0,0,7.2-1.4,6.54,6.54,0,0,0,1.41-2.09,6.56,6.56,0,0,0,0-5.12,6.61,6.61,0,0,0-3.5-3.5,6.54,6.54,0,0,0-5.11,0Z" transform="translate(-29.09 -29.46)"/><path class="cls-2" d="M630.27,141.49a.13.13,0,0,1-.15.15h-.07a.15.15,0,0,1-.12-.07l-9.29-12.4v12.32a.13.13,0,0,1-.15.15h-.7a.13.13,0,0,1-.15-.15V126.66c0-.11.05-.16.15-.16h0a.14.14,0,0,1,.12.06L629.26,139V126.65a.13.13,0,0,1,.15-.15h.71a.13.13,0,0,1,.15.15Z" transform="translate(-29.09 -29.46)"/><path class="cls-2" d="M651.51,128.67a.13.13,0,0,1-.19,0l-.16-.13-.22-.16-.55-.36a5.51,5.51,0,0,0-1.39-.5,6.18,6.18,0,0,0-.91-.12h-.49l-.28,0h-.25a4.26,4.26,0,0,0-1,.26,2.45,2.45,0,0,0-.9.58,2.06,2.06,0,0,0-.53,1l0,.15a.78.78,0,0,0,0,.14,2.13,2.13,0,0,0,0,.3V130h0v.31l0,.12v.07l0,.07,0,.14a.31.31,0,0,0,0,.13l0,.07,0,.07.08.13.07.13,0,.06.05.06a.62.62,0,0,0,.09.12,4.28,4.28,0,0,0,1.06.82,14.52,14.52,0,0,0,1.31.65l.18.07.18.09.35.16.68.31a12.13,12.13,0,0,1,1.42.74,6,6,0,0,1,1.27,1.06,3.33,3.33,0,0,1,.75,1.53l0,.21c0,.09,0,.16,0,.21v.35h0v.45l0,.21,0,.21a3.42,3.42,0,0,1-.67,1.47,3.35,3.35,0,0,1-1.19,1,5.33,5.33,0,0,1-1.33.47l-.16,0-.17,0a1.39,1.39,0,0,1-.32,0l-.32,0-.3,0h-.59l-.28,0h-.15l-.14,0a6.22,6.22,0,0,1-1-.2,7.2,7.2,0,0,1-1.6-.66l-.54-.35-.38-.29-.21-.18a.13.13,0,0,1,0-.21l.52-.49a.13.13,0,0,1,.2,0l.13.11a3.65,3.65,0,0,0,.31.24,4.66,4.66,0,0,0,.47.3,6,6,0,0,0,1.36.57,7.7,7.7,0,0,0,.9.19H647a1.27,1.27,0,0,0,.27,0h.79l.28,0,.27,0,.14,0,.15,0a4.84,4.84,0,0,0,1.06-.37,2.58,2.58,0,0,0,.88-.71,2.67,2.67,0,0,0,.49-1.08l0-.14,0-.15a.17.17,0,0,0,0-.08v-.34h0v0h0v-.23a1,1,0,0,0,0-.16l0-.07v-.08a2.52,2.52,0,0,0-.55-1.11,6.86,6.86,0,0,0-2.34-1.55l-.71-.32-.33-.17-.16-.07-.18-.07a15.41,15.41,0,0,1-1.41-.7,5.74,5.74,0,0,1-1.28-1,.75.75,0,0,1-.13-.16l-.07-.08-.06-.08-.22-.37,0-.11,0-.1a1,1,0,0,1-.07-.2l-.07-.2,0-.11,0-.11,0-.22V130h0v-.2c0-.11,0-.24,0-.4l0-.19.06-.2a2.87,2.87,0,0,1,.77-1.37,3.67,3.67,0,0,1,1.23-.79,5.16,5.16,0,0,1,1.26-.31h.32l.29,0h.57a6.5,6.5,0,0,1,1.05.13,5.85,5.85,0,0,1,1.62.6,5.74,5.74,0,0,1,.55.34,4.56,4.56,0,0,1,.39.27l.2.18a.13.13,0,0,1,0,.21Z" transform="translate(-29.09 -29.46)"/></svg>