<svg id="Capa_1" data-name="Capa 1" xmlns="http://www.w3.org/2000/svg" viewBox="0 0 634.4 125.37"><defs><style>.cls-1{fill:#179ffc;}.cls-2,.cls-4{fill:#404040;}.cls-3{fill:#e1ff33;}.cls-4{font-size:21.65px;font-family:Coves-Bold, Coves;font-weight:700;letter-spacing:0.44em;}</style></defs><title>marca</title><path class="cls-1" d="M221.34,87.91h0a2.71,2.71,0,0,1,2.13,4.39,39,39,0,1,1,.06-47.67A2.71,2.71,0,0,1,221.41,49h0a2.73,2.73,0,0,1-2.17-1.09A33.55,33.55,0,1,0,219.18,89,2.74,2.74,0,0,1,221.34,87.91Z" transform="translate(-29.29 -29.46)"/><path class="cls-1" d="M301.48,87.91h0a2.71,2.71,0,0,1,2.12,4.39,39,39,0,1,1,.06-47.67A2.71,2.71,0,0,1,301.54,49h0a2.76,2.76,0,0,1-2.17-1.09A33.55,33.55,0,1,0,299.32,89,2.72,2.72,0,0,1,301.48,87.91Z" transform="translate(-29.29 -29.46)"/><path class="cls-1" d="M652.71,68.43c0,.91,0,1.81-.1,2.71A39,39,0,0,1,585.26,95a2.71,2.71,0,0,1,2-4.53h0a2.74,2.74,0,0,1,2,.88,33.56,33.56,0,0,0,57.94-20.22H574.88c-.06-.9-.1-1.8-.1-2.71s0-1.81.1-2.71a39,39,0,0,1,67.35-23.87,2.7,2.7,0,0,1-2,4.53h0a2.74,2.74,0,0,1-2-.88A33.56,33.56,0,0,0,580.3,65.72h72.31C652.68,66.62,652.71,67.52,652.71,68.43Z" transform="translate(-29.29 -29.46)"/><path class="cls-1" d="M65.54,32.58h0a2.69,2.69,0,0,1-2.3,2.67A33.55,33.55,0,0,0,34.7,68.43v36.26a2.7,2.7,0,0,1-2.71,2.7h0a2.7,2.7,0,0,1-2.7-2.7V68.43A39,39,0,0,1,62.48,29.89,2.7,2.7,0,0,1,65.54,32.58Z" transform="translate(-29.29 -29.46)"/><path class="cls-1" d="M565,68.43v36.26a2.7,2.7,0,0,1-2.7,2.7h0a2.7,2.7,0,0,1-2.71-2.7V69.13c0-18.28-14.33-33.74-32.61-34.24a33.55,33.55,0,0,0-34.49,33.54v36.26a2.71,2.71,0,0,1-2.71,2.7h0a2.71,2.71,0,0,1-2.71-2.7V68.43a39,39,0,1,1,77.93,0Z" transform="translate(-29.29 -29.46)"/><path class="cls-1" d="M140.77,48.81a39,39,0,1,0,0,39.64v16.44a2.7,2.7,0,0,0,2.7,2.7h0a2.7,2.7,0,0,0,2.71-2.7V68.63A38.79,38.79,0,0,0,140.77,48.81Zm-33.56,53.37a33.55,33.55,0,1,1,33.56-33.55A33.56,33.56,0,0,1,107.21,102.18Z" transform="translate(-29.29 -29.46)"/><path class="cls-2" d="M438.4,29.46a39,39,0,0,0-22.72,7.31c-.55.45-1.1.88-1.67,1.29a33.54,33.54,0,0,1-39.08-.18,1.27,1.27,0,0,1-.13-.11c-.37-.27-.75-.55-1.12-.84a38.39,38.39,0,0,0-12.4-6,39,39,0,1,0-10.53,76.47,38.92,38.92,0,0,0,23.07-7.57l.06,0c.21-.16.4-.34.64-.5a2.27,2.27,0,0,1,.28-.21,33.6,33.6,0,0,1,39.37-.14c.46.33.93.69,1.37,1A39,39,0,1,0,438.4,29.46Zm0,72.52a33.31,33.31,0,0,1-19.67-6.37s-.06,0-.09-.07c-.41-.3-.8-.61-1.2-.91a38.94,38.94,0,0,0-45.93.16.07.07,0,0,0-.05,0l-.64.48-.08,0a33.55,33.55,0,1,1-.21-54v0c.32.21.62.44.93.67l.08.09a38.81,38.81,0,0,0,12.51,6.09,38.2,38.2,0,0,0,10.53,1.46,38.46,38.46,0,0,0,10.52-1.45,39.09,39.09,0,0,0,12.26-5.9c.51-.41,1-.8,1.54-1.19,0,0,.06,0,.07-.06A33.56,33.56,0,1,1,438.4,102Z" transform="translate(-29.29 -29.46)"/><path class="cls-3" d="M438.4,34.87A33.52,33.52,0,0,0,419,41.06s-.05,0-.07.06c-.51.39-1,.78-1.54,1.19a39.09,39.09,0,0,1-12.26,5.9,38.46,38.46,0,0,1-10.52,1.45,38.2,38.2,0,0,1-10.53-1.46,38.81,38.81,0,0,1-12.51-6.09l-.08-.09c-.31-.23-.61-.46-.93-.67v0a33.56,33.56,0,1,0,.21,54l.08,0,.64-.48a.07.07,0,0,1,.05,0,38.87,38.87,0,0,1,45.93-.16c.4.3.79.61,1.2.91,0,0,.07,0,.09.07A33.56,33.56,0,1,0,438.4,34.87Zm-87.65,48.2a14.64,14.64,0,1,1,14.62-14.65A14.63,14.63,0,0,1,350.75,83.07Zm87.65,0A14.64,14.64,0,1,1,453,68.44,14.63,14.63,0,0,1,438.4,83.07Z" transform="translate(-29.29 -29.46)"/><path class="cls-2" d="M350.75,53.8a14.64,14.64,0,1,0,14.62,14.62A14.62,14.62,0,0,0,350.75,53.8Zm0,23.82a9.19,9.19,0,1,1,9.18-9.2A9.19,9.19,0,0,1,350.75,77.62Z" transform="translate(-29.29 -29.46)"/><path class="cls-2" d="M438.4,53.8A14.64,14.64,0,1,0,453,68.44,14.63,14.63,0,0,0,438.4,53.8Zm0,23.82a9.19,9.19,0,1,1,9.2-9.18A9.18,9.18,0,0,1,438.4,77.62Z" transform="translate(-29.29 -29.46)"/><text x="-29.29" y="-29.46"></text><text class="cls-4" transform="translate(0.56 112.17)">ADAPTATIVE SOFTWARE SOLUTIONS</text></svg>